<svg xmlns="http://www.w3.org/2000/svg">
    <symbol id="star" viewBox="0 0 50 50" fill="currentColor">
        <path d="M26.285,2.486l5.407,10.956c0.376,0.762,1.103,1.29,1.944,1.412l12.091,1.757
	c2.118,0.308,2.963,2.91,1.431,4.403l-8.749,8.528c-0.608,0.593-0.886,1.448-0.742,2.285l2.065,12.042
	c0.362,2.109-1.852,3.717-3.746,2.722l-10.814-5.685c-0.752-0.395-1.651-0.395-2.403,0l-10.814,5.685
	c-1.894,0.996-4.108-0.613-3.746-2.722l2.065-12.042c0.144-0.837-0.134-1.692-0.742-2.285l-8.749-8.528
	c-1.532-1.494-0.687-4.096,1.431-4.403l12.091-1.757c0.841-0.122,1.568-0.65,1.944-1.412l5.407-10.956
	C22.602,0.567,25.338,0.567,26.285,2.486z"/>
    </symbol>
    <symbol id="info" viewBox="0 0 50 50" fill="currentColor">
        <path d="M0 0h48v48h-48z" fill="none"/>
        <path d="M22 34h4v-12h-4v12zm2-30c-11.05 0-20 8.95-20 20s8.95 20 20 20 20-8.95 20-20-8.95-20-20-20zm0 36c-8.82 0-16-7.18-16-16s7.18-16 16-16 16 7.18 16 16-7.18 16-16 16zm-2-22h4v-4h-4v4z"/>
    </symbol>
    <symbol id="cross" viewBox="0 0 24 24" fill="none">
        <path fill-rule="evenodd" clip-rule="evenodd"
              d="M4.29289 4.29289C4.68342 3.90237 5.31658 3.90237 5.70711 4.29289L12 10.5858L18.2929 4.29289C18.6834 3.90237 19.3166 3.90237 19.7071 4.29289C20.0976 4.68342 20.0976 5.31658 19.7071 5.70711L13.4142 12L19.7071 18.2929C20.0976 18.6834 20.0976 19.3166 19.7071 19.7071C19.3166 20.0976 18.6834 20.0976 18.2929 19.7071L12 13.4142L5.70711 19.7071C5.31658 20.0976 4.68342 20.0976 4.29289 19.7071C3.90237 19.3166 3.90237 18.6834 4.29289 18.2929L10.5858 12L4.29289 5.70711C3.90237 5.31658 3.90237 4.68342 4.29289 4.29289Z"
              fill="currentColor"/>
    </symbol>
    <symbol id="loupe" viewBox="0 0 50 50">
        <path d="M 21 3 C 11.621094 3 4 10.621094 4 20 C 4 29.378906 11.621094 37 21 37 C 24.710938 37 28.140625 35.804688 30.9375 33.78125 L 44.09375 46.90625 L 46.90625 44.09375 L 33.90625 31.0625 C 36.460938 28.085938 38 24.222656 38 20 C 38 10.621094 30.378906 3 21 3 Z M 21 5 C 29.296875 5 36 11.703125 36 20 C 36 28.296875 29.296875 35 21 35 C 12.703125 35 6 28.296875 6 20 C 6 11.703125 12.703125 5 21 5 Z"
              fill="currentColor"/>
    </symbol>
    <symbol id="trash" viewBox="0 0 36 36">
        <path d="M25,10H7v17c0,1.105,0.895,2,2,2h14c1.105,0,2-0.895,2-2V10z" fill="none" stroke="#000000"
              stroke-linecap="round" stroke-linejoin="round" stroke-miterlimit="10" stroke-width="2"/>
        <path d="  M20,7h-8V5c0-1.105,0.895-2,2-2h4c1.105,0,2,0.895,2,2V7z" fill="none" id="XMLID_145_" stroke="#000000"
              stroke-linecap="round" stroke-linejoin="round" stroke-miterlimit="10" stroke-width="2"/>
        <path d="  M28,10H4V8c0-0.552,0.448-1,1-1h22c0.552,0,1,0.448,1,1V10z" fill="none" id="XMLID_146_"
              stroke="#000000" stroke-linecap="round" stroke-linejoin="round" stroke-miterlimit="10" stroke-width="2"/>
        <line fill="none" id="XMLID_148_" stroke="#000000" stroke-linecap="round" stroke-linejoin="round"
              stroke-miterlimit="10" stroke-width="2" x1="16" x2="16" y1="15" y2="24"/>
        <line fill="none" id="XMLID_147_" stroke="#000000" stroke-linecap="round" stroke-linejoin="round"
              stroke-miterlimit="10" stroke-width="2" x1="12" x2="12" y1="15" y2="24"/>
        <line fill="none" id="XMLID_149_" stroke="#000000" stroke-linecap="round" stroke-linejoin="round"
              stroke-miterlimit="10" stroke-width="2" x1="20" x2="20" y1="15" y2="24"/>
    </symbol>
    <symbol id="cart" viewBox="0 0 36 36">
        <path xmlns="http://www.w3.org/2000/svg"
              d="M31.998,0.772c-0.133-0.535-0.677-0.863-1.213-0.728l-4.004,1c-0.39,0.098-0.684,0.418-0.746,0.813l-0.507,3.208     L0.878,8.022c-0.019,0.002-0.034,0.016-0.055,0.02C0.8,8.046,0.779,8.039,0.755,8.045c-0.057,0.014-0.1,0.049-0.15,0.071     c-0.057,0.024-0.11,0.043-0.16,0.076C0.375,8.24,0.318,8.302,0.263,8.365C0.234,8.396,0.198,8.414,0.173,8.448     c-0.006,0.008-0.006,0.018-0.01,0.026C0.109,8.558,0.078,8.652,0.05,8.748c-0.01,0.035-0.03,0.065-0.036,0.101     C-0.006,8.981-0.006,9.12,0.028,9.258l3.004,12l1,4c0.008,0.029,0.025,0.052,0.035,0.079c0.016,0.048,0.037,0.092,0.061,0.137     c0.033,0.065,0.074,0.125,0.122,0.182c0.029,0.034,0.06,0.068,0.093,0.101c0.061,0.053,0.125,0.094,0.194,0.131     c0.036,0.021,0.068,0.043,0.107,0.059c0.112,0.042,0.232,0.068,0.357,0.068h21.022c0.553,0,1-0.447,1-0.999     c0-0.553-0.447-1.001-1-1.001H5.783l-0.5-2h18.739c0.123,0,0.242-0.021,0.352-0.063c0.045-0.018,0.08-0.047,0.121-0.069     c0.062-0.033,0.126-0.062,0.179-0.107c0.039-0.033,0.065-0.078,0.102-0.119c0.042-0.051,0.089-0.095,0.122-0.15     c0.027-0.053,0.039-0.113,0.059-0.172c0.021-0.053,0.047-0.103,0.059-0.158l0.004-0.021v-0.011L27.91,2.824l3.36-0.839     C31.808,1.851,32.133,1.308,31.998,0.772z M4.783,20.014L2.244,9.873l3.104-0.372l1.505,10.513H4.783z M8.873,20.014L7.336,9.263     l3.119-0.374l0.505,11.125H8.873z M15.056,20.014h-2.089L12.449,8.649l3.116-0.373L15.056,20.014z M19.133,20.014H17.06     l0.52-11.98l3.102-0.371L19.133,20.014z M23.146,20.014h-1.994l1.576-12.598l2.133-0.255L23.146,20.014z M9.005,28.014     c-1.104,0-2.002,0.896-2.002,2.001c0,1.105,0.897,1.999,2.002,1.999c1.106,0,2.002-0.895,2.002-1.999     C11.007,28.912,10.111,28.014,9.005,28.014z M22.021,28.014c-1.105,0-2.002,0.896-2.002,2.001c0,1.105,0.896,1.999,2.002,1.999     c1.104,0,2.002-0.895,2.002-1.999C24.021,28.911,23.125,28.014,22.021,28.014z"/>
    </symbol>
    <symbol id="pencil" fill="#000000" viewBox="0 0 50 50">
        <path d="M30.133 1.552c-1.090-1.044-2.291-1.573-3.574-1.573-2.006 0-3.47 1.296-3.87 1.693-0.564 0.558-19.786 19.788-19.786 19.788-0.126 0.126-0.217 0.284-0.264 0.456-0.433 1.602-2.605 8.71-2.627 8.782-0.112 0.364-0.012 0.761 0.256 1.029 0.193 0.192 0.45 0.295 0.713 0.295 0.104 0 0.208-0.016 0.31-0.049 0.073-0.024 7.41-2.395 8.618-2.756 0.159-0.048 0.305-0.134 0.423-0.251 0.763-0.754 18.691-18.483 19.881-19.712 1.231-1.268 1.843-2.59 1.819-3.925-0.025-1.319-0.664-2.589-1.901-3.776zM22.37 4.87c0.509 0.123 1.711 0.527 2.938 1.765 1.24 1.251 1.575 2.681 1.638 3.007-3.932 3.912-12.983 12.867-16.551 16.396-0.329-0.767-0.862-1.692-1.719-2.555-1.046-1.054-2.111-1.649-2.932-1.984 3.531-3.532 12.753-12.757 16.625-16.628zM4.387 23.186c0.55 0.146 1.691 0.57 2.854 1.742 0.896 0.904 1.319 1.9 1.509 2.508-1.39 0.447-4.434 1.497-6.367 2.121 0.573-1.886 1.541-4.822 2.004-6.371zM28.763 7.824c-0.041 0.042-0.109 0.11-0.19 0.192-0.316-0.814-0.87-1.86-1.831-2.828-0.981-0.989-1.976-1.572-2.773-1.917 0.068-0.067 0.12-0.12 0.141-0.14 0.114-0.113 1.153-1.106 2.447-1.106 0.745 0 1.477 0.34 2.175 1.010 0.828 0.795 1.256 1.579 1.27 2.331 0.014 0.768-0.404 1.595-1.24 2.458z"></path>
    </symbol>
    <symbol id="Кофе" viewBox="0 0 50 50">
        <polygon fill="#FFC107" points="11.143,15 13,28 35,28 36.857,15 "/>
        <g>
            <path fill="#795548" d="M39,15v-2.5c0-0.828-0.672-1.5-1.5-1.5h-27C9.672,11,9,11.672,9,12.5V15H39z"/>
            <polygon fill="#77574F" points="13.143,29 15,42 33,42 34.857,29  "/>
            <circle fill="#77574F" cx="24" cy="28" r="5"/>
        </g>
        <g>
            <path fill="#4E342E"
                  d="M20,28c0-0.732,0.211-1.409,0.555-2h-7.84l0.714,5h7.951C20.541,30.267,20,29.201,20,28z"/>
            <path fill="#4E342E"
                  d="M27.445,26C27.789,26.591,28,27.268,28,28c0,1.201-0.541,2.267-1.38,3h7.951l0.714-5H27.445z"/>
            <polygon fill="#4E342E" points="36,6 12,6 11,11 37,11  "/>
        </g>
        <path fill="#5D4037"
              d="M24,21c3.866,0,7,3.134,7,7s-3.134,7-7,7s-7-3.134-7-7S20.134,21,24,21 M24,20c-4.411,0-8,3.589-8,8  s3.589,8,8,8s8-3.589,8-8S28.411,20,24,20L24,20z"/>
        <path fill="#FFF3E0"
              d="M24,21c-3.866,0-7,3.134-7,7s3.134,7,7,7s7-3.134,7-7S27.866,21,24,21z M24,32c-2.209,0-4-1.791-4-4  s1.791-4,4-4s4,1.791,4,4S26.209,32,24,32z"/>
    </symbol>
    <symbol id="Бургер" viewBox="0 0 50 50">
        <g>
            <path fill="#68362B"
                  d="M41,31.5c0,1.381-1.119,2.5-2.5,2.5h-29C8.119,34,7,32.881,7,31.5l0,0C7,30.119,8.119,29,9.5,29h29   C39.881,29,41,30.119,41,31.5L41,31.5z"/>
            <path fill="#68362B"
                  d="M38.5,18c0,0-0.252-0.3-2-1c-2.5-1-23.5-1-25,0c-1.044,0.696-2,1-2,1C8.119,18,7,19.119,7,20.5   S8.119,23,9.5,23h29c1.381,0,2.5-1.119,2.5-2.5S39.881,18,38.5,18z"/>
        </g>
        <g>
            <path fill="#FFC107" d="M8,35v4.75C8,40.993,9.007,42,10.25,42h27.5c1.243,0,2.25-1.007,2.25-2.25V35H8z"/>
            <path fill="#FFC107" d="M24,6C15.164,6,8,10.478,8,16h32C40,10.478,32.837,6,24,6z"/>
        </g>
        <rect x="7" y="24" fill="#FF3D00" width="34" height="4"/>
        <g>
            <circle fill="#CE8106" cx="16" cy="13" r="1"/>
            <circle fill="#CE8106" cx="18" cy="10" r="1"/>
            <circle fill="#CE8106" cx="20" cy="13" r="1"/>
        </g>
        <g>
            <path fill="#8BC34A"
                  d="M41.911,35.403c-0.285-0.855-0.956-1.509-1.805-2.003C39.671,33.77,39.115,34,38.5,34h-29   c-0.646,0-1.229-0.252-1.673-0.654C7.25,33.922,6.8,34.57,6.625,35.155c-0.409,1.361-0.635,3.548,1.254,3.417   c0.888-0.062,1.724-0.396,2.426-0.906c1.094-0.794,1.548-1.021,2.366-0.008c0.795,0.984,1.428,1.834,2.438,0.647   c1.048-1.233,1.182-1.913,2.974-1.548c1.876,0.383,3.45,1.683,5.364,1.986c0.932,0.146,1.337,0.128,1.89-0.672   c0.451-0.652,0.862-2.06,1.734-2.193c1.422-0.217,0.349,1.371,0.308,2.09c-0.106,1.82,1.893,0.265,2.426-0.357   c0.333-0.389,0.825-1.193,1.431-1.039c0.66,0.17,0.322,0.52,0.466,1.063c0.134,0.506,0.586,1.372,1.197,1.364   c0.749-0.01,1.101-1.332,1.479-1.868c0.307-0.432,0.879-1.183,1.479-1.146c0.665,0.042,0.847,0.873,1.181,1.418   c0.686,1.119,2.586,2.152,3.811,1.258C41.633,38.088,42.232,36.365,41.911,35.403z"/>
            <path fill="#8BC34A"
                  d="M40.105,15.735H8.069c-0.958,0.406-1.687,0.917-1.862,1.5c-0.412,1.361-0.356,2.467,1.548,2.336   c0.894-0.062,1.736-0.396,2.444-0.906c1.103-0.794,1.56-1.021,2.385-0.008c0.801,0.984,1.439,1.834,2.456,0.647   c1.056-1.233,1.191-1.913,2.996-1.548c1.892,0.383,3.477,1.683,5.407,1.986c0.938,0.146,1.349,0.128,1.903-0.672   c0.455-0.652,0.869-2.06,1.749-2.193c1.433-0.217,0.352,1.371,0.31,2.09c-0.106,1.82,1.907,0.265,2.444-0.357   c0.336-0.389,0.832-1.193,1.442-1.039c0.665,0.17,0.325,0.52,0.47,1.063c0.135,0.506,0.591,1.372,1.206,1.364   c0.756-0.01,1.11-1.332,1.492-1.868c0.308-0.432,0.885-1.183,1.489-1.146c0.67,0.042,0.854,0.873,1.189,1.418   c0.691,1.119,2.607,2.152,3.841,1.258c0.791-0.573,0.8-0.963,0.475-1.925C41.21,17.007,40.722,16.334,40.105,15.735z"/>
        </g>
        <g>
            <path fill="#FFEB3B" d="M39,29c-15,0-21,3-21,3s-4-3-9-3v-1h30V29z"/>
            <path fill="#FFEB3B" d="M9,24c15,0,21,3,21,3s4-3,9-3v-1H9V24z"/>
        </g>
    </symbol>
    <symbol id="Суши" viewBox="0 0 50 50">
        <g>
            <rect x="8" y="24.997" fill="#6D4C41" width="17" height="10"/>
            <ellipse fill="#6D4C41" cx="16.5" cy="34.5" rx="8.5" ry="5.5"/>
            <ellipse fill="#6D4C41" cx="16.5" cy="25.5" rx="8.5" ry="5.5"/>
        </g>
        <ellipse fill="#ECEFF1" cx="16.5" cy="25.5" rx="6.611" ry="3.5"/>
        <ellipse fill="#FF6E40" cx="16.438" cy="25.5" rx="3.563" ry="1.5"/>
        <g>
            <g>
                <path fill="#FFCC80"
                      d="M21.695,21.149L40.515,9.857l-1.029-1.715L19.229,20.296C20.128,20.493,20.96,20.781,21.695,21.149z"/>
                <polygon fill="#FFCC80" points="8,27.034 4.485,29.143 5.515,30.857 8,29.366   "/>
            </g>
            <line fill="none" stroke="#FFCC80" stroke-width="2" x1="5" y1="37" x2="43" y2="20"/>

            <rect x="23" y="7.685" transform="matrix(0.4081 0.9129 -0.9129 0.4081 40.2232 -5.0419)" fill="#FFCC80"
                  width="2" height="41.629"/>
        </g>
        <path fill="#3E2723" d="M25,29.147L8.581,36.493c0.343,0.57,0.834,1.093,1.435,1.551L25,31.34V29.147z"/>
    </symbol>
    <symbol id="Пицца" viewBox="0 0 50 50">
        <polygon fill="#FFD54F" points="20,6 6,42 42,28 "/>
        <g>
            <path fill="#FF3D00"
                  d="M15.001,32C12.24,32,10,34.238,10,36.999c0,1.147,0.402,2.192,1.053,3.036l8.904-3.463   C19.737,34.015,17.615,32,15.001,32z"/>
            <circle fill="#FF3D00" cx="20.501" cy="18.5" r="4.5"/>
        </g>
        <g>
            <path fill="#3E2723"
                  d="M28,20c-1.655,0-3,1.345-3,3.002C25,24.656,26.345,26,28,26s3-1.344,3-2.998C31,21.345,29.655,20,28,20z    M28,24.5c-0.829,0-1.5-0.671-1.5-1.5s0.671-1.5,1.5-1.5s1.5,0.671,1.5,1.5S28.829,24.5,28,24.5z"/>
            <path fill="#3E2723"
                  d="M16,25c-1.655,0-3,1.345-3,3.002C13,29.656,14.345,31,16,31s3-1.344,3-2.998C19,26.345,17.655,25,16,25z    M16,29.5c-0.829,0-1.5-0.671-1.5-1.5s0.671-1.5,1.5-1.5s1.5,0.671,1.5,1.5S16.829,29.5,16,29.5z"/>
        </g>
        <g>
            <path fill="#8D6E63"
                  d="M29.872,32.522c-0.388-1.034-1.541-1.559-2.575-1.17c-1.034,0.388-6.24,3.296-5.853,4.33   c0.034,0.092,0.125,0.16,0.238,0.219l8.235-3.203C29.902,32.64,29.894,32.58,29.872,32.522z"/>
            <path fill="#8D6E63"
                  d="M25.189,34.278c-0.486-1.52-0.307-2.893-0.307-2.893c0.033-0.043,0.034-0.094,0.03-0.146   c0.049-0.19,0.059-0.392-0.016-0.591c-0.194-0.518-0.771-0.779-1.287-0.585c-0.132,0.05-0.247,0.125-0.342,0.217   c-1.771,1.116-2.586,3.366-1.822,5.402c0.034,0.092,0.085,0.172,0.125,0.261l3.705-1.44C25.248,34.428,25.215,34.357,25.189,34.278   z"/>
        </g>
        <g>
            <path fill="#689F38" d="M26,28.595c0,0-0.536-5.372-6-3.443C20.589,30.741,26,28.595,26,28.595z"/>
            <path fill="#689F38" d="M33.595,25c0,0-5.373,0.535-3.443,6C35.741,30.41,33.595,25,33.595,25z"/>
        </g>
        <path fill="#FF9800"
              d="M41.858,27.188c-0.927-2.179-3.077-8.541-7.786-13.249c-4.581-4.584-10.641-7.104-13.331-7.834  c-0.839-0.226-1.025-0.272-1.354,0.563c-0.268,0.676-1.03,2.987-1.406,4.069c-0.064,0.184-0.099,0.334-0.121,0.47  c8.695,3.351,15.61,10.274,18.951,18.975c0.025-0.006,0.047-0.001,0.074-0.01c0.695-0.221,3.471-1.19,4.208-1.436  C41.83,28.486,42.231,28.063,41.858,27.188z"/>
    </symbol>
    <symbol id="Блины" viewBox="0 0 50 50">
        <g>
            <ellipse fill="#EF6C00" cx="24" cy="31.5" rx="19" ry="6.5"/>
            <ellipse fill="#EF6C00" cx="24" cy="25.5" rx="19" ry="6.5"/>
            <ellipse fill="#EF6C00" cx="24" cy="19.5" rx="19" ry="6.5"/>
            <ellipse fill="#EF6C00" cx="24" cy="13.5" rx="19" ry="6.5"/>
        </g>
        <g>
            <path fill="#FFCC80"
                  d="M24,38c-10,0-18.178-2.645-18.926-6H5c0,6,9.06,9,19,9s19-3,19-9h-0.074C42.178,35.355,34,38,24,38z"/>
            <path fill="#FFCC80"
                  d="M24,32c-10,0-18.178-2.645-18.926-6H5c0,6,9.06,9,19,9s19-3,19-9h-0.074C42.178,29.355,34,32,24,32z"/>
            <path fill="#FFCC80"
                  d="M24,26c-10,0-18.178-2.645-18.926-6H5c0,6,9.06,9,19,9s19-3,19-9h-0.074C42.178,23.355,34,26,24,26z"/>
            <path fill="#FFCC80"
                  d="M24,20c-10,0-18.178-2.645-18.926-6H5c0,6,9.06,9,19,9s19-3,19-9h-0.074C42.178,17.355,34,20,24,20z"/>
        </g>
        <g>
            <ellipse fill="#BF360C" cx="24" cy="13.5" rx="12" ry="3.5"/>
            <path fill="#BF360C"
                  d="M31,32.5c0,1.381-1.119,2.5-2.5,2.5l0,0c-1.381,0-2.5-1.119-2.5-2.5V16.25c0-1.381,5-1.381,5,0V32.5z"/>
            <path fill="#BF360C"
                  d="M22,23.161c0,1.381-1.119,2.5-2.5,2.5l0,0c-1.381,0-2.5-1.119-2.5-2.5v-7.125c0-1.381,5-1.381,5,0V23.161z"/>
            <path fill="#BF360C"
                  d="M26,13c0,1.104-0.896,2-2,2l0,0c-1.104,0-2-0.896-2-2v6c0-1.104,0.896-2,2-2l0,0c1.104,0,2,0.896,2,2V13z"/>
            <path fill="#BF360C" d="M31,12v6c0-1.104,0.9-2,1.396-2C32.396,16,31,13.104,31,12z"/>
            <path fill="#BF360C" d="M17,12v6c0-1.104-0.9-2-1.396-2C15.604,16,17,13.104,17,12z"/>
        </g>
    </symbol>
    <symbol id="Вок" viewBox="0 0 50 50">
        <g>
            <line fill="none" stroke="#5D4037" stroke-width="2" x1="41" y1="12" x2="5" y2="12"/>
            <line fill="none" stroke="#5D4037" stroke-width="2" x1="40.984" y1="7" x2="4.984" y2="9"/>
        </g>
        <g>
            <path fill="#FFE082"
                  d="M13.72,28.052c0.287-0.212,0.696-0.466,1.214-0.639c0.36-0.121,0.72-0.18,1.075-0.187   c0.022,0,0.044,0.002,0.066,0.002c0.945,0.002,1.854,0.398,2.631,1.176c0.425,0.426,0.84,0.577,1.212,0.59   c0.037,0,0.074-0.001,0.11-0.002c0.605-0.026,1.082-0.413,1.269-0.594c0.062-0.063,0.688-0.671,1.635-0.986   c0.357-0.119,0.713-0.178,1.065-0.186c0.03-0.001,0.061,0.002,0.092,0.003c0.939,0.007,1.843,0.4,2.617,1.175   c0.439,0.439,0.868,0.591,1.249,0.594c0.015,0,0.028-0.004,0.043-0.004c0.619-0.014,1.108-0.412,1.299-0.596   c0.596-0.596,1.572-1.132,2.661-1.166c0.041-0.002,0.081-0.004,0.124-0.003c0.854,0.004,1.771,0.322,2.623,1.175   c0.398,0.396,0.794,0.585,1.215,0.588c0.027,0,0.054,0.003,0.081,0.003c0.141-0.008,0.283-0.033,0.431-0.083   c0.495-0.165,0.855-0.505,0.859-0.509c0.068-0.068,0.694-0.676,1.641-0.991c0.356-0.119,0.713-0.178,1.064-0.186   c0.026-0.001,0.052,0.003,0.078,0.003c0.788,0.001,1.552,0.276,2.234,0.821c0.145-0.047,0.281-0.117,0.396-0.232   c0.391-0.391,0.391-1.023,0-1.414c-1.088-1.09-2.431-1.441-3.773-0.992c-0.946,0.315-1.572,0.923-1.641,0.991   c-0.004,0.004-0.364,0.344-0.859,0.509c-0.622,0.21-1.171,0.047-1.727-0.508c-1.984-1.987-4.326-1.088-5.408-0.006   c-0.311,0.3-1.414,1.182-2.591,0.006c-1.089-1.09-2.431-1.441-3.774-0.992c-0.947,0.315-1.573,0.924-1.635,0.986   c-0.311,0.299-1.413,1.185-2.591,0.006c-1.088-1.088-2.43-1.443-3.773-0.991c-0.946,0.315-1.572,0.923-1.641,0.991   c-0.388,0.388-0.388,1.014-0.003,1.405C13.413,27.935,13.563,28.006,13.72,28.052z"/>
            <path fill="#FFE082"
                  d="M12.008,36.092c-0.001-0.031-0.004-0.063-0.003-0.095c0.008-0.352,0.066-0.707,0.185-1.063   c0.315-0.946,0.923-1.572,0.992-1.641c0.18-0.187,0.577-0.672,0.592-1.29c0-0.032-0.003-0.063-0.003-0.096   c-0.015-0.369-0.166-0.778-0.587-1.2c-0.85-0.85-1.168-1.763-1.174-2.616c-0.002-0.049,0-0.096,0.003-0.143   c0.038-1.085,0.574-2.059,1.171-2.655c0.18-0.186,0.576-0.671,0.591-1.289c0.001-0.033-0.003-0.065-0.003-0.098   c-0.016-0.369-0.167-0.778-0.587-1.199c-0.773-0.773-1.167-1.675-1.174-2.614c-0.001-0.033-0.004-0.065-0.003-0.097   c0.007-0.351,0.066-0.707,0.185-1.063c0.316-0.947,0.924-1.573,0.992-1.641c0.18-0.186,0.576-0.671,0.591-1.289   c0.001-0.033-0.003-0.065-0.003-0.098c-0.016-0.369-0.167-0.778-0.587-1.199c-0.773-0.773-1.167-1.675-1.173-2.615   c-0.001-0.031-0.004-0.062-0.003-0.092c0.007-0.352,0.066-0.708,0.185-1.065c0.174-0.522,0.431-0.932,0.643-1.22   c-0.046-0.153-0.116-0.3-0.237-0.421c-0.391-0.391-1.023-0.391-1.414,0c-0.068,0.068-0.676,0.694-0.992,1.641   c-0.448,1.345-0.096,2.685,0.992,3.772c1.179,1.18,0.294,2.282,0,2.585c-0.068,0.068-0.676,0.694-0.992,1.641   c-0.448,1.346-0.096,2.686,0.992,3.774c1.179,1.179,0.294,2.281,0,2.585c-1.088,1.088-1.986,3.428,0,5.414   c1.179,1.18,0.293,2.281-0.001,2.586c-0.068,0.068-0.676,0.694-0.992,1.641c-0.448,1.346-0.096,2.686,0.993,3.773   C11.378,38.902,11.634,39,11.89,39s0.512-0.098,0.708-0.293c0.115-0.115,0.185-0.252,0.232-0.396   C12.288,37.633,12.014,36.876,12.008,36.092z"/>
        </g>
        <g>
            <path fill="#FFC107"
                  d="M27.931,31c-0.948,0-1.857-0.402-2.637-1.182c-1.181-1.18-2.283-0.295-2.592,0.006   c-1.083,1.082-3.421,1.982-5.409-0.006c-1.178-1.18-2.281-0.294-2.591,0.006c-0.395,0.382-1.027,0.377-1.411-0.015   c-0.385-0.392-0.385-1.018,0.003-1.405c0.068-0.068,0.694-0.676,1.641-0.991c1.343-0.452,2.685-0.097,3.773,0.991   c1.178,1.18,2.281,0.294,2.591-0.006c0.062-0.063,0.688-0.671,1.635-0.986c1.344-0.449,2.686-0.097,3.774,0.992   c1.177,1.177,2.28,0.294,2.591-0.006c1.082-1.082,3.424-1.98,5.408,0.006c0.556,0.554,1.104,0.718,1.727,0.508   c0.495-0.165,0.855-0.505,0.859-0.509c0.068-0.068,0.694-0.676,1.641-0.991c1.343-0.449,2.686-0.097,3.773,0.992   c0.391,0.391,0.391,1.023,0,1.414s-1.023,0.391-1.414,0c-0.556-0.556-1.104-0.719-1.727-0.509   c-0.495,0.165-0.856,0.505-0.859,0.508c-0.068,0.068-0.694,0.676-1.641,0.992c-1.347,0.447-2.686,0.097-3.773-0.991   c-1.181-1.18-2.281-0.293-2.592,0.006c-0.063,0.063-0.688,0.67-1.635,0.985C28.686,30.938,28.305,31,27.931,31z"/>
            <path fill="#FFC107"
                  d="M10.19,34.934c0.315-0.946,0.923-1.572,0.992-1.641c0.18-0.187,0.576-0.672,0.592-1.29   c0-0.032-0.003-0.063-0.003-0.096c-0.015-0.369-0.166-0.778-0.587-1.2c-0.849-0.849-1.168-1.762-1.174-2.614   c-0.002-0.049,0-0.096,0.002-0.143c0.038-1.086,0.574-2.061,1.171-2.657c0.18-0.186,0.576-0.671,0.591-1.288   c0.001-0.033-0.003-0.065-0.003-0.099c-0.016-0.368-0.167-0.777-0.587-1.198c-0.773-0.773-1.167-1.674-1.174-2.613   c-0.001-0.033-0.004-0.065-0.003-0.098c0.007-0.352,0.066-0.708,0.185-1.064c0.316-0.947,0.924-1.573,0.992-1.641   c0.18-0.186,0.576-0.671,0.591-1.288c0.001-0.033-0.003-0.066-0.003-0.099c-0.016-0.369-0.167-0.778-0.587-1.199   c-0.773-0.773-1.167-1.674-1.173-2.613c-0.001-0.031-0.004-0.063-0.003-0.093c0.007-0.352,0.066-0.708,0.185-1.066   c0.174-0.522,0.431-0.932,0.643-1.219c-0.046-0.153-0.116-0.299-0.237-0.42c-0.391-0.391-1.023-0.391-1.414,0   c-0.068,0.068-0.676,0.694-0.992,1.641c-0.448,1.345-0.096,2.685,0.992,3.772c1.179,1.18,0.294,2.282,0,2.585   c-0.068,0.068-0.676,0.694-0.992,1.641c-0.448,1.346-0.096,2.686,0.992,3.774c1.179,1.179,0.294,2.281,0,2.585   c-1.088,1.088-1.986,3.428,0,5.414c1.179,1.18,0.293,2.281-0.001,2.586c-0.391,0.391-0.391,1.023,0,1.414   c0.195,0.195,0.452,0.293,0.708,0.293c0.102,0,0.201-0.027,0.299-0.059C10.188,34.939,10.189,34.937,10.19,34.934z"/>
            <path fill="#FFC107"
                  d="M13.89,39c-0.256,0-0.512-0.098-0.707-0.293c-1.088-1.088-1.441-2.428-0.993-3.773   c0.315-0.946,0.923-1.572,0.992-1.641c0.294-0.305,1.18-1.406,0.001-2.586c-1.986-1.986-1.088-4.326,0-5.414   c0.294-0.304,1.179-1.406,0-2.585c-1.088-1.088-1.44-2.429-0.992-3.774c0.316-0.947,0.924-1.573,0.992-1.641   c0.294-0.304,1.179-1.406,0-2.585c-1.088-1.087-1.44-2.427-0.992-3.772c0.315-0.946,0.923-1.572,0.992-1.641   c0.391-0.391,1.023-0.391,1.414,0c0.389,0.389,0.391,1.019,0.004,1.41c-0.3,0.312-1.182,1.412-0.004,2.589   c1.088,1.088,1.44,2.428,0.992,3.774c-0.315,0.946-0.923,1.572-0.992,1.641c-0.294,0.304-1.18,1.407,0,2.587   c1.088,1.088,1.44,2.428,0.992,3.772c-0.315,0.947-0.923,1.572-0.992,1.641c-0.294,0.304-1.179,1.406,0,2.586   c1.088,1.088,1.44,2.428,0.991,3.773c-0.316,0.946-0.924,1.572-0.992,1.641c-0.294,0.304-1.179,1.406,0.001,2.586   c0.391,0.391,0.391,1.023,0,1.414C14.402,38.902,14.146,39,13.89,39z"/>
            <path fill="#FFC107"
                  d="M38.708,24.403c-0.391-0.39-1.023-0.39-1.414,0c-0.004,0.003-0.364,0.344-0.859,0.509   c-0.623,0.209-1.171,0.047-1.727-0.508c-1.984-1.986-4.325-1.088-5.408-0.005c-0.311,0.299-1.412,1.182-2.591,0.005   c-1.09-1.089-2.43-1.441-3.774-0.992c-0.947,0.316-1.573,0.924-1.635,0.986c-0.31,0.3-1.413,1.185-2.591,0.006   c-1.088-1.088-2.429-1.441-3.773-0.992c-0.238,0.079-0.455,0.177-0.648,0.28v2.005c0.193-0.104,0.406-0.203,0.647-0.284   c0.36-0.121,0.719-0.18,1.074-0.187c0.024,0,0.049,0.002,0.073,0.003c0.943,0.003,1.85,0.398,2.626,1.175   c0.425,0.426,0.839,0.576,1.211,0.589c0.025,0,0.05,0.003,0.075,0.002c0.623-0.012,1.114-0.413,1.305-0.597   c0.062-0.063,0.688-0.671,1.635-0.986c0.358-0.12,0.716-0.179,1.069-0.186c0.027,0,0.055,0.002,0.082,0.003   c0.942,0.004,1.847,0.398,2.623,1.175c0.44,0.439,0.87,0.591,1.252,0.594c0.008,0,0.017-0.002,0.025-0.003   c0.627-0.007,1.122-0.411,1.313-0.597c0.596-0.596,1.573-1.133,2.663-1.167c0.041-0.002,0.081-0.003,0.124-0.002   c0.854,0.004,1.771,0.323,2.621,1.175c0.396,0.395,0.789,0.582,1.206,0.587c0.031,0,0.062,0.004,0.093,0.003   c0.14-0.008,0.281-0.032,0.428-0.082c0.495-0.165,0.855-0.505,0.859-0.509c0.068-0.068,0.694-0.676,1.641-0.991   c0.003-0.001,0.006-0.001,0.009-0.002C39.052,25.065,38.981,24.676,38.708,24.403z"/>
        </g>
        <path fill="#00BCD4" d="M5,29c0,7.882,5.073,10.563,12.126,13h11.748C35.927,39.563,41,36.882,41,29H5z"/>
        <path fill="#0097A7" d="M40.102,34C40.684,32.604,41,30.965,41,29.001H5C5,30.965,5.316,32.604,5.898,34H40.102z"/>
    </symbol>
    <symbol id="bonus" viewBox="0 0 30 30" fill="#FD6A7E">
        <path class="st0"
              d="M24,16v10c0,0.6-0.4,1-1,1H7c-0.6,0-1-0.4-1-1V16h8v9h2v-9H24z M14,9H5c-0.6,0-1,0.4-1,1v3c0,0.6,0.4,1,1,1h9V9  z M25,9h-9v5h9c0.6,0,1-0.4,1-1v-3C26,9.4,25.6,9,25,9z M22.1,7.9l0.1-0.4c0.4-1,0.3-2.2-0.3-3.1C21.3,3.5,20.2,3,19.1,3  c-1.4,0-2.6,0.8-3.1,2.1l-2,4.9H19C20.3,10,21.6,9.2,22.1,7.9z M17.9,5.8C18.1,5.3,18.6,5,19.1,5c0.4,0,0.8,0.2,1.1,0.6  c0.2,0.4,0.3,0.8,0.1,1.2l-0.1,0.4C20,7.7,19.5,8,19,8h-2L17.9,5.8z M14,5.1C13.5,3.8,12.2,3,10.9,3C9.8,3,8.7,3.5,8.1,4.5  C7.5,5.4,7.4,6.5,7.8,7.6l0.1,0.4C8.4,9.2,9.7,10,11,10h4.9L14,5.1z M12.1,5.8L13,8h-2c-0.5,0-1-0.3-1.2-0.8L9.6,6.8  C9.5,6.4,9.5,5.9,9.8,5.6C10,5.2,10.4,5,10.9,5C11.4,5,11.9,5.3,12.1,5.8z"/>
    </symbol>
    <symbol id="arrow" viewBox="0 0 300 300" fill="black">
        <path xmlns="http://www.w3.org/2000/svg" d="M282.082,76.511l-14.274-14.273c-1.902-1.906-4.093-2.856-6.57-2.856c-2.471,0-4.661,0.95-6.563,2.856L142.466,174.441   L30.262,62.241c-1.903-1.906-4.093-2.856-6.567-2.856c-2.475,0-4.665,0.95-6.567,2.856L2.856,76.515C0.95,78.417,0,80.607,0,83.082   c0,2.473,0.953,4.663,2.856,6.565l133.043,133.046c1.902,1.903,4.093,2.854,6.567,2.854s4.661-0.951,6.562-2.854L282.082,89.647   c1.902-1.903,2.847-4.093,2.847-6.565C284.929,80.607,283.984,78.417,282.082,76.511z"/>
    </symbol>
</svg>